<svg xmlns="http://www.w3.org/2000/svg" viewBox="0 0 1761.72 1161.25"><defs><style>.cls-1{stroke:#fff;}.cls-1,.cls-3{stroke-miterlimit:10;}.cls-2{fill:none;}.cls-3,.cls-4{fill:#fff;}.cls-3{stroke:#000;}</style></defs><g id="Layer_2" data-name="Layer 2"><path class="cls-1" d="M279,155.73s25.86-105,53.67-129.6S387.31,8.46,398.11,16,423.64,36,422,62.13s-4.25,34-4.25,34-1,3.27,6.21,0S519.53,63.77,607.24,50,785,32.68,806.87,39.22s52,18.33,54.33,67.75S820,176.68,801,179.3s-84.43,1-159.71,16.36S507.09,227.08,447.85,249s-77.23,30.44-77.23,30.44L333,426.06s-1.31,3.93,5.24,1.64S414.15,396.28,499.89,391s92,18.66,101.78,51.38-16.36,62.84-39.92,70.69-111.6,27.49-149.24,38.95-118.8,44.84-118.8,44.84-4.91,1.3-5.89,8.83-13.42,59.89-13.42,59.89-2,3.28,2.29,14.73,25.2,78.22,23.56,117.16S287.82,896.68,265.56,950s-51.05,119.46-86.72,135.17-53.35,10.14-78.88-8.51-26.83-70.37-26.51-82.48,20-140.4,32.4-191.12,23.9-90,23.9-90S70.51,594.82,54.47,551.68,15.85,449.62,22.73,407.4,46.29,324.28,94.4,272.9s120.44-88.37,145-100.15S279,155.73,279,155.73Z" transform="translate(-20.96 -8.5)"/><path d="M415,853.61a1.63,1.63,0,0,1,1.48,2c-4.27,15.61-32,122-9.61,173.17,24.22,55.31,53.35,61.53,91,58.91s66.89-41.17,82.15-61.86c17.05-23.12,45.37-75.7,47.36-79a1.39,1.39,0,0,0,.12-.28c.19-.62,1.36-3.29,7.17-1.84,6.55,1.64,37-.66,53.68-12.11,9.91-6.81,14.52-10.15,16.62-11.74a1.62,1.62,0,0,1,2.49.7c4,10.12,23.15,54.67,53.54,68,34.36,15.05,53,9.49,61.2,6.54s12.11-6.22,18.33-3.27,31.74,13.74,62.51-3.93c27.64-15.88,65.85-78.52,73.78-90.65,1.85-2.83,3.81-2.51,5.56.11a62.13,62.13,0,0,0,35,24.11c24.22,6.22,33.63,5.91,40.8,3.82,8.62-2.51,9.38-4,11.42,4.36,1.44,5.94,14.76,48.55,61.45,62.51,48.33,14.46,89.75-14.89,101.2-22.18s33.06-24.62,33.06-24.62a4,4,0,0,1,6.21,1.3c2.62,4.26,21.6,38.3,56,46.48s44.18,4.25,62.18-1.31c12-3.72,17.63-6.42,20-7.8a1.63,1.63,0,0,1,2.45,1.44,11.93,11.93,0,0,1-.87,3.74c-2,5.24-28.8,83.78-3.93,132.87s69.71,50.4,93.93,43.86,61.53-21.93,102.76-101.46,15.06-154.14,15.06-154.14-1.64-3.6,4.58-8.84,68.4-69.71,102.76-89,49.42-21.6,55.64-68.07-40.58-65.13-53-66.11a124.05,124.05,0,0,0-18-.2,1.63,1.63,0,0,1-1.7-2c2.78-11.11,14.42-61.14,6.3-90.4-6-21.65-13.41-46.68-33.81-64.4-17.88-15.52-37.55-19-44.73-20.36-58.5-10.75-107,36.48-113.13,42.65l-20.29,18.33-13.39,13.3a1.65,1.65,0,0,1-2.81-1.1q-.62-14.43-1.25-28.87a1.09,1.09,0,0,0,0-.26c-.61-3-11.94-54.87-62.16-55.51-50.86-.64-68.15,45.89-68.71,47.42l0,.08a110.71,110.71,0,0,0-9.24,33,1.11,1.11,0,0,0,0,.19,169.8,169.8,0,0,0,2.37,29.15c1.72,9.82,2.59,14.72,4.78,17.93,1.44,2.12,4.14,5.32,3.11,7-.53.88-1.68.79-3.6,1.23-2.8.64-4.7,1.92-8.51,4.5a48.42,48.42,0,0,0-7.45,6.3,77.49,77.49,0,0,0-12.31,16.54l-.07.14-17,36.93a1.65,1.65,0,0,1-3.14-.51l-.47-4.17a.92.92,0,0,1,0-.16c0-4-1.78-65.94-46.34-87.86-15-7.37-30.22-7-32.69-7-29.76.74-49.28,19.92-54.08,24.92l-6.27,6.43c-11,7.69-36.06,49.9-38.13,49.9-2.52,0-3.44-24.38-7.22-38a1.89,1.89,0,0,0,0-.23c-.69-2.34-13.57-42.85-55.78-42.53-40.17.3-67.45,34.28-69,34.69s-3.71.33-5.46-2.67c-2.29-3.93-15-31.62-63.65-18.39-29.68,8.08-44.39,53-45.69,58-.1.35-.21.69-.33,1-1.74,5.06-14.55,45.64-16.82,45.77-2.63.14-4.17-8.41-6.69-19.81-5.56-25.2-47.45-83.78-92-87.38s-62.51,5.23-78.87,14.07c-15.84,8.55-47.32,38.87-49.32,40.81l-.19.21-2.55,3.48a1.64,1.64,0,0,1-2.29.37h0a1.65,1.65,0,0,1-.62-1.81c2.12-7.14,12.8-46.61-2.63-68.89-17-24.57-31.42-37.33-63.17-35.37s-60.22,27.82-67.42,39.27a130.62,130.62,0,0,1-16.43,20.37,1.6,1.6,0,0,1-2,.25c-5.6-3.3-32.72-17.55-62.43-3.27-33.38,16-67.42,68.4-73.31,130.25C336.61,803.94,357,849.42,415,853.61Z" transform="translate(-20.96 -8.5)"/><path class="cls-2" d="M293.49,263.34s-111.27,57.6-144.44,95.13-36.21,51.06-32.72,68.95,25.31,83.78,40.14,114.76,40.15,82,40.15,82l7.73-32.29s-14.28,9-17.33-2.49-5.67-19.33,4.36-32.42,20.07-22.26,23.13-24,4.8-2.62,4.8-2.62Z" transform="translate(-20.96 -8.5)"/></g><g id="Layer_3" data-name="Layer 3"><path class="cls-3" d="M302.8,176.73S329.64,82.47,341.75,64.8,362,37.31,372.84,38.62s21.27,10.15,18.66,34-18,72.65-18,72.65S489.68,95.57,616,77.24,786.84,64.8,786.84,64.8s44.51-.11,44.51,42.82-38,43.58-59.56,44.24-100.15,2-217.31,32.07S347,256.58,347,256.58L290.48,471.71S376,439.86,428.8,431.57,534,418.47,534,418.47s36.65-2.61,38.83,32.73S537,489.81,537,489.81,451.5,509.24,406.11,523.2,301,559,282.62,569.46L264.3,579.93l-23.19,94.42s41.51,81,26.24,164.78S212.8,999.27,192.3,1030.69s-41.46,36.22-53.24,34.48-30.55-13.53-32.73-43.64.44-88.15,21-177.16,33.16-137.46,33.16-137.46S95.86,577.75,77.53,526.69c-11.83-33-21.37-63.87-24.25-81.54-4.11-25.26,5-61.8,5-61.8S85,308.51,152.59,261,302.8,176.73,302.8,176.73Z" transform="translate(-20.96 -8.5)"/><path class="cls-4" d="M478.07,662.62S519.53,607.2,539.6,595s38.4-12.83,49.31-5.54,17.89,23,16.14,42.63-17.89,64.15-47.56,133.53S516,891.71,511.67,915.27s-4.36,27.49-4.36,27.49,31.85-41,77.67-137,50.18-106.9,70.69-127.85,55-49.31,88.15-48.87,58.47,22.69,72.87,47.12S839,739,835.45,756s-12.21,28.36-17.89,30.54a35.39,35.39,0,0,1-11.34,2.19s-4.8,51.92-.87,66.32,3.92,19.64,7,19.64,27.49-16.58,55.85-95.13,39.27-104.72,44.51-120,20.07-30.54,34-29.23,24.87,13.52,24,29.23-13.09,64.58-13.09,64.58,48.87-72.87,67.2-86,27.92-18.76,42.32-16.14,24.88,19.2,26.19,34,3.49,36.66-4.8,67.64-23.13,81.16-23.13,81.16,20.51-12.22,31.85-19.63,13.09-9.6,13.09-9.6,23.57-70.7,55.86-109.1,40.58-47.12,61.09-47.56,34,19.2,40.14,38,12.22,55.86,2.19,66.77-20.51,16.58-29.24,15.71-19.64-16.15-19.64-16.15S1202,748.58,1188,790s-17,59.78-17.46,65.45-.87,10-.87,10,35.78-9.6,95.13-67.64,55.85-58.47,65-82S1353,641.67,1380.47,650s26.62,23.13,24,40.58-30.54,109.1-34.47,133.53-5.67,43.2-5.67,43.2,14,2.62,31-14.4,50.18-58,54.11-64.14S1463,766.47,1463,766.47s-10.91-86,21.38-133.09,79-95.56,124.8-103.42,71.12,27.06,75.49,55.42,3.49,69.82-9.6,96.87-27.49,48.88-45.38,43.64c0,0-25.31-1.75-18.77-38.84s11.35-40.58,11.35-40.58,6.11-32.73-7.42-28.8-40.15,21.82-59.35,49.75-17,32.29-15.7,55.42,9.16,58,13.09,68.07,8.72,24,8.72,24,69-66.33,101.68-85.53,54.11-27.49,67.2-20.51,30.54,25.31,19.2,47.57-24,16.14-54.55,42.76-68.94,57.6-83.78,72.44-24.87,26.61-24.87,26.61,17.89,56.29,7,104.29-41.46,110-95.57,134-71.12-46.26-69.81-68.07,10.47-86,32.72-125.68,34-54.11,34-54.11l-8.73-32.29s-50.62,93.38-111.71,109.09-85.52-47.12-87.71-58a133.62,133.62,0,0,1-2.18-22.69s-52.8,59.34-89.89,73.31-67.63,8.72-81.6-9.6-18.76-38-19.2-44.08-2.18-22.25-2.18-22.25-34.91,24.87-62,13.53-35.35-28.37-37.53-42.33-2.18-33.17-2.18-33.17S945.42,894.76,921,925.31s-36.65,41-52.36,41.45-20.51-2.62-24.44-8.29-6.11-5.67-6.11-5.67-17,17.45-44.94,15.27S741.64,931,736,912.65s-9.6-44.94-9.6-54.11.44-11.34.44-11.34-37.09,51.93-59.35,62-33.16,5.24-39.7,2.18a90.86,90.86,0,0,1-13.1-7.85s-36.65,79.85-65,114.33-58.91,46.25-80.73,36.22-34.91-22.7-39.71-65.46,16.15-135.39,20.95-153.44a357.25,357.25,0,0,1,12.21-36.38s-46.25,38.84-72,14.84-20.94-79-13.09-101.24,29.24-65,49.31-74.18S468.47,635.56,478.07,662.62Z" transform="translate(-20.96 -8.5)"/></g><g id="Layer_4" data-name="Layer 4"><path class="cls-1" d="M315.52,190.58S337.12,115,346.29,95s21.92-39.6,25.52-39.27,3.6,15.71-2.29,40.25-20.94,80.84-20.94,80.84,99.92-49.42,212.51-69.93S737.38,83.34,759.2,83.34s27.49-.44,27.49-.44,26.18.44,27.49,26.19-23.13,27-27.49,27.49-143.57,10.47-192.88,22.69S419.7,209.45,379.12,225.59s-48,20.08-48,20.08l-65,257a914.46,914.46,0,0,1,134.84-45.82c73.31-18.33,136.15-20.08,136.15-20.08s17.89,0,18.32,16.15-7.41,18.33-23.12,22.69S437.16,496.14,370.83,518s-122.18,51.49-122.18,51.49L223.12,677.67s29,57.16,29.68,101.45S251.27,867.05,225.09,929s-55.2,121.31-79.09,121-25.86-31.09-26.19-52,20.62-146.29,27.49-170.84,29.79-120.76,29.79-120.76S102,558.54,86.32,507.92,60.58,428.5,74.54,385.3s70.26-97.31,92.51-113,72-47.13,96.87-58.48S315.52,190.58,315.52,190.58Z" transform="translate(-20.96 -8.5)"/><path d="M453.75,714.76S477,690.87,504.8,655.85s48.76-55.31,62.18-55.31,23.24,7.86,22.26,26.84-17,63.82-36,101.46S498.58,884.29,494,914.07a326.88,326.88,0,0,0-3.27,57.6s2,6.55,10.47,0,38-35,64.8-90.33,50.07-95.56,55.64-110.61,26.83-75,69.71-102.77,62.18-28.47,89.34-8.51,38.62,58.26,38.95,79.86-8.19,31.74-12.44,32.07c-.07,0-12.11-9.49-12.11-9.49s-7.42,23.35-7,49.53.44,70.47,13.31,77.89,24-.66,31.63-9.38,31.2-43,52.59-99.49,45.27-121.31,45.27-121.31,6.87-12.77,15.54-12.6,8.84,14.72,7.2,23.07-17.4,75.49-23.29,94.25-14,40.8-8.07,38.19,72.11-101,87.49-121.31,32.07-41.89,51.06-42.55,21.6,39.27,15.05,66.11-27.16,87.05-27.82,104.73.33,20.29,6.55,19,56.29-30.44,61.85-36,7.2-6.55,7.2-6.55,20-58.25,40.91-88.36,42.22-63.16,63.49-61.85,29.46,31.09,29.46,50.4,1.63,31.09-10.15,36-17-18.66-17-18.66-5.23-15.38-14.4-5.56S1183.24,755,1177,771.71s-25.53,58.91-24.55,91.63S1182.91,882,1197,873.49s98.51-71.67,123.06-105.71,46.14-95.89,46.14-95.89,5.24-8.18,12.44-6.87,12.11,7.52,10.47,16.69-3.93,29.13-20.62,83.78S1338.69,881,1356,883.64s35.34,3.27,66.76-35,48.11-61.2,52.69-70l4.58-8.84s-11.45-71.67,8.51-110.61,57.6-79.86,80.51-93.93,50.07-28.15,71-16,28.14,28.8,30.76,46.15-.65,55.31-8.83,74-16.37,39.6-28.48,39.93-5.23-23.89-3.27-31.09,10.47-27.49,8.84-47.13-5.24-36.65-28.8-29.78-36,18.65-56,41.56-32.72,40.91-31.74,69.38,10.47,70.7,19.31,97.53S1554.69,845,1554.69,845s74.29-74.29,106.69-94.58,51.06-27.17,51.06-27.17,17.34-2.62,22.58,11.13-2.62,20.94-13.75,26.51-47.12,25.2-96.54,73-56.62,62.18-56.62,62.18,22.25,67.09,5.24,119.46-54,94.25-80.19,104.72-40.91-10.8-44.51-22.58l-3.6-11.78s-3.6-50.07,15.71-98.51,52.69-95.56,52.69-95.56l-22.9-74.29s-49.75,96.54-94.91,119.78-59.24,15.38-80.51-8.51-13.75-73-12.44-79.53,3-15.45,3-15.45-68.73,88.43-111.6,105.45-56.62,12.44-71-5.23-15.06-42.88-14.73-57.28,1.31-28.14,1.31-28.14-41.89,38.29-67.42,32.72-31.42-17-35-41.89,3.28-61.2,5.24-66.43,2.62-16.69,2.62-16.69-35,42.87-56.62,82.8S892,943.53,874.29,948.76s-23.24-7.52-23.24-12.43-.32-20.29-.32-20.29-22.91,35-51.38,35-43.86-32.4-47.79-44.83-9.81-44.51-8.83-67.75S745,797.24,745,797.24s-55.31,77.23-76.26,91.3S637,899,629.49,894.11s-13.42-14.73-14.07-18a34.33,34.33,0,0,0-2.95-7.53s-34,77.56-56.29,110-47.13,66.44-72.65,62.19-35-25.53-37-47.79,1.3-83.12,14.72-134.18,40.58-117.82,40.58-117.82-51.38,51.39-73.3,59.24-28.8,2-35.35-8.84-7.2-50.07,2.95-77.89,20.94-46.47,31.41-56,22.91-6.87,26.84-2.29,12.11,14.73,7.85,32.73S456,710.18,453.75,714.76Z" transform="translate(-20.96 -8.5)"/></g><g id="Layer_5" data-name="Layer 5"><path class="cls-4" d="M294.24,262.72S183,320.32,149.81,357.85s-36.22,51-32.73,68.94,25.31,83.78,40.14,114.76,40.15,82,40.15,82l7.73-32.29s-14.28,9-17.33-2.49-5.67-19.33,4.36-32.42,20.08-22.25,23.13-24,4.8-2.62,4.8-2.62Z" transform="translate(-20.96 -8.5)"/><path class="cls-4" d="M754.84,706.91s-19.54,13.62-54.49,67.42c-29.46,45.32-45.33,57.92-45.66,51.38s11.13-56.29,26.51-77.57S724.73,690.87,754.84,706.91Z" transform="translate(-20.96 -8.5)"/><path class="cls-4" d="M1231.45,766.36s9.5,4.15,15.39,2.73,5.34-1.22,5.34-1.22-17.13,16.27-22.25,21.51-8.4,9.71-10.8,9.93-1.75-4.8.65-9.27S1229.49,768.76,1231.45,766.36Z" transform="translate(-20.96 -8.5)"/><path class="cls-4" d="M1430.43,717a.35.35,0,0,1,.67.13c0,4.18.12,15.15.29,21.08.18,6.11,1,16.31,1.34,19.73a3.6,3.6,0,0,1-.5,2.18c-2.19,3.68-9.85,16.33-14.67,21.89-3.42,3.95-5.57,6.23-6.74,7.42a.5.5,0,0,1-.85-.43C1411.32,781.33,1417.9,746.6,1430.43,717Z" transform="translate(-20.96 -8.5)"/><path class="cls-4" d="M1430.83,651.64l12.46-4.22a.7.7,0,0,1,.88.92c-1.31,3.38-4.59,12.22-5.82,19.21-.88,5-1.41,8-1.72,9.73a.41.41,0,0,1-.8,0l-6-23.87A1.51,1.51,0,0,1,1430.83,651.64Z" transform="translate(-20.96 -8.5)"/><path class="cls-4" d="M1580.78,686.35a.72.72,0,0,0-1.21-.58c-3.1,2.86-10.64,11.09-10,22.94s3.88,38.82,5.13,49a2.23,2.23,0,0,0,3.63,1.45L1596,744.7a3,3,0,0,0-.09-4.63C1590.17,735.56,1579,722.14,1580.78,686.35Z" transform="translate(-20.96 -8.5)"/><path class="cls-4" d="M1422.15,518.18s-29.68-3.93-42.55,37.53,6.33,60.22,15.49,65.23,41,9.6,55-21.81,6.55-58.48-1.52-67.42S1435.24,518.84,1422.15,518.18Z" transform="translate(-20.96 -8.5)"/><path class="cls-4" d="M1528.74,948.18a1.9,1.9,0,0,1,3.46.34c3.5,11.18,11,43.6-8.93,70-19.59,25.86-30,34.63-33.41,37.11a1.88,1.88,0,0,1-2.73-.54C1484.43,1050.39,1498.73,997,1528.74,948.18Z" transform="translate(-20.96 -8.5)"/></g><g id="Layer_7" data-name="Layer 7"><path class="cls-1" d="M177.42,548.29s5.67-10.47,14-17.89a94.69,94.69,0,0,1,14.4-10.91l61.09-223.42s-90.32,51.06-112.14,79.86-27.49,34-17.46,67.2S177.42,548.29,177.42,548.29Z" transform="translate(-20.96 -8.5)"/><path d="M1422.64,535.09s23.07,3.93,17.83,39.11-25.69,35.67-32.89,34-19.63-11.79-15.71-33.71S1407.42,532,1422.64,535.09Z" transform="translate(-20.96 -8.5)"/></g><g id="Layer_6" data-name="Layer 6"><path class="cls-4" d="M216.67,364.11,183.94,485.53s-2.29,1.63-5.24-8.19-15.38-44.5-16.36-49.41-3.93-9.82,2.29-17.35,46.15-46.47,46.15-46.47S217.76,360,216.67,364.11Z" transform="translate(-20.96 -8.5)"/><path class="cls-4" d="M202.4,776.29s-24.55,122.07-26.51,135.16-2,16-2,16,23.56-33,30.76-83.13S202.4,776.29,202.4,776.29Z" transform="translate(-20.96 -8.5)"/></g></svg>